<svg width="189" height="48" viewBox="0 0 189 48" fill="none" xmlns="http://www.w3.org/2000/svg">
    <g clip-path="url(#clip0_98_12108)">
        <path
            d="M15.5009 15.3678C15.5477 15.9282 16.7639 16.8926 18.5014 16.9678C18.6168 16.9727 18.7033 17.0745 18.6868 17.1888L18.4742 18.6745C24.5674 18.9663 30.1729 20.8145 30.1729 24.413C30.1729 38.7595 27.9308 44.8067 16.4759 44.8067C5.02102 44.8067 2.82706 38.7599 2.82706 24.4135C2.82706 22.0306 6.38528 19.8906 9.74868 19.0637L8.38397 13.4711C5.84939 13.1793 4.19176 12.158 4.19176 10.5047C4.19176 9.62927 4.72811 8.99719 5.99518 8.99719C6.48248 8.99719 6.92118 8.99719 7.35989 8.94871C6.92118 6.03075 9.30953 3.55048 12.9654 3.55048C15.7439 3.55048 17.3038 4.96098 17.8397 6.90614C19.1073 6.37103 19.9847 5.88485 21.1545 5.88485C22.3244 5.88485 23.1042 6.37103 23.1042 7.53821C23.1042 9.28899 21.4956 10.5536 18.6686 11.2831L19.9512 13.2607C20.1042 13.4965 19.9624 13.8114 19.6842 13.8541L18.6619 14.0111C18.5254 14.032 18.4537 14.1841 18.525 14.3025L18.8148 14.7846C19.1559 15.3682 18.5223 15.66 17.7911 15.66C17.0114 15.66 16.2312 15.5626 15.5 15.3682L15.5009 15.3678ZM21.9352 31.0273C20.9602 31.3191 20.863 30.6871 21.3503 30.2004C22.9588 28.6441 23.5924 26.553 23.5924 25.2399C23.5924 23.6835 23.2999 23.1489 22.5201 23.1489C20.7653 23.1489 17.6458 24.7052 16.9632 28.0609C16.8656 28.4986 16.7194 28.7419 16.5245 28.7419C16.3297 28.7419 16.1835 28.4986 16.0858 28.0609C15.4523 24.7052 11.845 23.1489 10.3827 23.1489C9.89536 23.1489 9.79772 23.4407 9.79772 24.1217C9.79772 26.7963 12.0398 29.8602 15.6957 29.8602C17.8892 29.8602 19.303 28.4497 21.155 26.0183C21.4475 25.6291 21.7885 25.8724 21.5937 26.3586C20.2776 29.6658 17.8892 31.7084 14.7207 31.7084C11.5521 31.7084 9.40762 30.7356 6.87258 28.4012C6.23905 27.8176 5.70271 28.0609 5.70271 28.6445C5.70271 32.7296 6.38528 36.0853 7.7014 38.2738C9.01751 40.5107 12.3809 41.6001 16.4755 41.6001C20.5701 41.6001 23.982 40.5107 25.2982 38.2738C26.6143 36.0853 27.2968 32.7296 27.2968 28.6445C27.2968 28.0609 26.7605 27.8176 26.127 28.4012C24.7623 29.6658 23.4461 30.5897 21.9348 31.0273H21.9352ZM16.4755 0C2.92469 0 0 8.70495 0 24.0242C0 39.3435 2.92469 48 16.4755 48C30.0263 48 33 39.295 33 24.0242C33 8.75344 30.0267 0 16.4755 0Z"
            fill="#FF4D00"></path>
    </g>
    <g clip-path="url(#clip1_98_12108)">
        <path
            d="M45.6138 33.1435C45.2041 33.1435 45 32.9771 45 32.6779V32.5115C45 31.5468 46.3647 31.7794 46.3647 29.7171V13.2832C46.3647 11.2214 45 11.454 45 10.4893V10.3229C45 10.0237 45.2046 9.85728 45.6138 9.85728H52.4724C52.8821 9.85728 53.0862 10.0237 53.0862 10.3895V10.5559C53.0862 11.4544 51.7214 11.2214 51.7214 13.2837V29.8499C51.7214 30.9806 52.165 31.3469 53.1885 31.3469H54.929C56.5667 31.3469 57.5562 30.282 58.5796 28.7188L59.6035 27.1552C59.9104 26.7227 60.1494 26.6561 60.4907 26.6561H60.7637C61.31 26.6561 61.4119 26.856 61.344 27.3216L60.6274 31.8125C60.4912 32.6775 60.1155 33.1431 59.1604 33.1431H45.6138V33.1435Z"
            fill="black"></path>
        <path
            d="M72.9804 28.2859C72.9804 25.9906 71.5133 24.9928 70.0463 24.9928C68.3742 24.9928 67.248 26.3233 67.248 27.9531C67.248 29.5829 68.1696 31.2131 70.1481 31.2131C71.8202 31.2131 72.9799 30.082 72.9799 28.2859M78.405 29.9492C78.6779 31.8787 79.7697 31.7454 79.7697 32.4109V32.5437C79.7697 33.1421 78.8825 33.3421 77.7568 33.3421C75.6411 33.3421 74.1745 32.6435 73.6281 30.8473H73.3212C72.3996 32.6766 70.3527 33.6413 67.9301 33.6413C64.518 33.6413 62.1298 31.4457 62.1298 28.1857C62.1298 25.4248 64.4501 23.2292 68.2035 23.2292C69.8412 23.2292 71.6152 23.6286 72.7414 24.6595L72.2638 21.2998C71.957 19.237 71.2404 18.0728 69.8757 18.0728C68.7834 18.0728 68.3742 18.805 68.0673 20.1687C67.7604 21.599 66.9416 22.3978 65.474 22.3978C64.1437 22.3978 63.3244 21.633 63.3244 20.4683C63.3244 18.3059 66.4635 16.8425 69.9779 16.8425C74.2084 16.8425 76.9384 18.8717 77.4504 22.7967L78.4054 29.9488L78.405 29.9492Z"
            fill="black"></path>
        <path
            d="M97.8485 29.7805C97.8485 31.8433 99.2133 31.6103 99.2133 32.575V32.7409C99.2133 33.0406 99.0087 33.2065 98.5995 33.2065H92.0138C91.6041 33.2065 91.4 33.0406 91.4 32.7409V32.575C91.4 31.6103 92.7648 31.8428 92.7648 29.7805V23.2605C92.7648 20.3332 91.8776 19.1024 90.1036 19.1024C88.3297 19.1024 87.1691 20.3332 87.1691 23.2605V29.7805C87.1691 31.8433 88.5343 31.6103 88.5343 32.575V32.7409C88.5343 33.0406 88.3292 33.2065 87.92 33.2065H81.3348C80.9252 33.2065 80.7206 33.0406 80.7206 32.7409V32.575C80.7206 31.6103 82.0853 31.8428 82.0853 29.7805V22.7613C82.0853 20.7322 80.5499 20.7657 80.5499 19.9007V19.6346C80.5499 19.3685 80.6866 19.2021 81.3348 18.8698L84.6446 17.2065C85.0882 16.9735 85.2928 16.9073 85.5318 16.9073C85.8732 16.9073 86.0438 17.1067 86.1122 17.5723L86.3512 19.6351H86.692C88.0572 17.3729 90.411 16.9073 91.8441 16.9073C94.608 16.9073 97.8495 18.1712 97.8495 22.9948V29.781L97.8485 29.7805Z"
            fill="black"></path>
        <path
            d="M105.254 22.9677C105.254 26.128 106.415 27.8911 108.053 27.8911C109.691 27.8911 110.851 26.128 110.851 22.9677C110.851 19.8074 109.69 18.0443 108.053 18.0443C106.415 18.0443 105.254 19.8741 105.254 22.9677ZM116.889 34.145C116.889 37.9704 113.307 40 107.609 40C102.593 40 99.4542 38.8022 99.4542 36.2739C99.4542 34.7103 100.58 33.9455 101.945 33.9455C103.31 33.9455 104.299 34.9433 104.914 36.1075C105.801 37.7709 106.961 38.7356 108.735 38.7356C110.373 38.7356 111.84 37.5379 111.84 35.6084C111.84 33.912 110.544 33.1472 108.838 33.1472C107.541 33.1472 106.279 33.6794 104.231 33.6794C102.389 33.6794 100.615 32.8811 100.615 30.6855C100.615 29.2883 101.365 28.4233 102.32 27.625V27.3257C100.99 26.2608 100.205 24.7312 100.205 22.9677C100.205 19.3418 103.378 16.8471 108.053 16.8471C109.179 16.8471 110.168 17.0134 111.123 17.0134C112.249 17.0134 112.557 16.614 112.557 16.1485C112.557 15.5496 111.738 15.0835 111.738 14.0195C111.738 12.9555 112.591 12.0234 114.092 12.0234C115.696 12.0234 116.515 13.0884 116.515 14.3523C116.515 16.0156 115.184 17.5457 112.42 17.8118V18.0779C114.536 19.1093 115.9 20.6398 115.9 22.9682C115.9 26.561 112.727 29.0888 108.053 29.0888C106.347 29.0888 104.812 28.7565 103.583 28.1241C103.481 28.5235 103.413 28.9224 103.413 29.3218C103.413 30.4529 103.89 30.8523 105.153 30.8523C107.098 30.8523 109.316 30.054 111.67 30.054C114.024 30.054 116.89 31.0518 116.89 34.1459"
            fill="black"></path>
        <path
            d="M130.723 11.9255C130.723 13.3228 129.699 14.4539 128.368 14.4539C126.731 14.4539 125.98 13.3889 125.707 11.7927C125.468 10.3289 124.923 9.5636 123.933 9.5636C123.012 9.5636 122.363 10.2622 122.363 12.1917C122.363 15.0192 124.001 17.3145 126.833 17.3145H127.686C127.959 17.3145 128.164 17.5144 128.164 17.7805V18.4456C128.164 18.7117 127.959 18.9112 127.686 18.9112H124.513V29.6895C124.513 31.8515 126.561 31.5192 126.561 32.484V32.6499C126.561 32.9496 126.355 33.1155 125.946 33.1155H118.678C118.269 33.1155 118.065 32.9496 118.065 32.6499V32.484C118.065 31.5192 119.429 31.7518 119.429 29.6895V18.9112H117.689C117.416 18.9112 117.211 18.7117 117.211 18.4456V17.7805C117.211 17.5144 117.416 17.3145 117.689 17.3145H118.065C118.816 17.3145 119.429 16.9822 119.429 15.8511V15.1856C119.429 10.6616 122.261 8.00046 126.015 8.00046C129.051 8.00046 130.724 9.69688 130.724 11.926"
            fill="black"></path>
        <path
            d="M138.988 28.2859C138.988 25.9906 137.521 24.9928 136.054 24.9928C134.383 24.9928 133.256 26.3233 133.256 27.9531C133.256 29.5829 134.178 31.2131 136.157 31.2131C137.828 31.2131 138.988 30.082 138.988 28.2859ZM144.414 29.9492C144.686 31.8787 145.778 31.7454 145.778 32.4109V32.5437C145.778 33.1421 144.891 33.3421 143.765 33.3421C141.65 33.3421 140.183 32.6435 139.637 30.8473H139.33C138.409 32.6766 136.361 33.6413 133.939 33.6413C130.527 33.6413 128.138 31.4457 128.138 28.1857C128.138 25.4248 130.459 23.2292 134.212 23.2292C135.85 23.2292 137.624 23.6286 138.75 24.6595L138.272 21.2998C137.965 19.237 137.249 18.0728 135.884 18.0728C134.792 18.0728 134.383 18.805 134.076 20.1687C133.769 21.599 132.95 22.3978 131.483 22.3978C130.152 22.3978 129.333 21.633 129.333 20.4683C129.333 18.3059 132.473 16.8425 135.987 16.8425C140.217 16.8425 142.947 18.8717 143.459 22.7967L144.414 29.9488L144.414 29.9492Z"
            fill="black"></path>
        <path
            d="M159.32 19.3832C159.32 21.0465 158.33 22.0113 157.068 22.0113C154.816 22.0113 154.781 19.9154 153.758 19.9154C153.28 19.9154 153.041 20.5143 153.041 21.1794C153.041 21.9442 153.178 22.6763 153.178 23.8405V29.6955C153.178 31.8575 155.225 31.5252 155.225 32.4895V32.6559C155.225 32.9551 155.02 33.1215 154.611 33.1215H147.343C146.933 33.1215 146.729 32.9551 146.729 32.6559V32.4895C146.729 31.5252 148.094 31.7578 148.094 29.6955V22.6763C148.094 20.6471 146.558 20.6802 146.558 19.8157V19.5496C146.558 19.2835 146.695 19.1171 147.343 18.7848L150.653 17.1215C151.096 16.8884 151.301 16.8223 151.54 16.8223C151.881 16.8223 152.052 17.0217 152.12 17.4873L152.359 19.55H152.598C153.691 17.2878 155.328 16.8223 156.488 16.8223C158.058 16.8223 159.32 17.7534 159.32 19.3837"
            fill="black"></path>
        <path
            d="M187.635 29.7801C187.635 31.8428 189 31.6098 189 32.5745V32.7404C189 33.0401 188.795 33.206 188.386 33.206H181.801C181.391 33.206 181.187 33.0401 181.187 32.7404V32.5745C181.187 31.6098 182.552 31.8424 182.552 29.7801V23.26C182.552 20.5989 181.938 19.1019 180.163 19.1019C178.389 19.1019 177.502 20.5989 177.502 23.26V29.7801C177.502 31.8428 178.867 31.6098 178.867 32.5745V32.7404C178.867 33.0401 178.662 33.206 178.253 33.206H171.667C171.258 33.206 171.054 33.0401 171.054 32.7404V32.5745C171.054 31.6098 172.418 31.8424 172.418 29.7801V23.26C172.418 20.5989 171.804 19.1019 170.03 19.1019C168.255 19.1019 167.369 20.5989 167.369 23.26V29.7801C167.369 31.8428 168.734 31.6098 168.734 32.5745V32.7404C168.734 33.0401 168.529 33.206 168.12 33.206H161.534C161.125 33.206 160.92 33.0401 160.92 32.7404V32.5745C160.92 31.6098 162.285 31.8424 162.285 29.7801V22.7609C162.285 20.7317 160.749 20.7653 160.749 19.9003V19.6342C160.749 19.368 160.886 19.2017 161.534 18.8694L164.844 17.206C165.288 16.973 165.492 16.9068 165.731 16.9068C166.072 16.9068 166.243 17.1063 166.311 17.5719L166.55 19.6346H166.858C168.154 17.3724 170.338 16.9068 171.771 16.9068C173.75 16.9068 175.865 17.7052 176.888 19.8341C178.151 17.4055 180.403 16.9068 181.904 16.9068C184.668 16.9068 187.637 18.4369 187.637 22.9944V29.7805L187.635 29.7801Z"
            fill="black"></path>
    </g>
    <defs>
        <clipPath id="clip0_98_12108">
            <rect width="33" height="48" fill="white"></rect>
        </clipPath>
        <clipPath id="clip1_98_12108">
            <rect width="144" height="32" fill="white" transform="translate(45 8)"></rect>
        </clipPath>
    </defs>
</svg>
